HIERARCHY
ROOT hips
{
  OFFSET 0 10.6860622 2.3727825e-15
  CHANNELS 6 Xposition Yposition Zposition Yrotation Xrotation Zrotation
  JOINT leftUpperLeg
  {
    OFFSET 0.6642549969 -0.9402397400000004 0
    CHANNELS 3 Yrotation Xrotation Zrotation
    JOINT leftLowerLeg
    {
      OFFSET 0 -3.997221335632195 0
      CHANNELS 3 Yrotation Xrotation Zrotation
      JOINT leftFoot
      {
        OFFSET -0.13777839790000004 -4.6145792000000005 -0.22186036399999998
        CHANNELS 3 Yrotation Xrotation Zrotation
        JOINT leftToes
        {
          OFFSET -0.03777410834999995 -0.9130806927000008 0.85230013
          CHANNELS 3 Yrotation Xrotation Zrotation
          End Site
          {
            OFFSET -0.03777410834999995 -0.9130806927000008 0.85230013
          }
        }
      }
    }
  }
  JOINT rightUpperLeg
  {
    OFFSET -0.6642778626 -0.9402397400000004 0
    CHANNELS 3 Yrotation Xrotation Zrotation
    JOINT rightLowerLeg
    {
      OFFSET 0 -3.997221452859387 0
      CHANNELS 3 Yrotation Xrotation Zrotation
      JOINT rightFoot
      {
        OFFSET 0.1377926176 -4.6145792000000005 -0.22185782299999995
        CHANNELS 3 Yrotation Xrotation Zrotation
        JOINT rightToes
        {
          OFFSET 0.037780746850000047 -0.9130806927000008 0.85230167
          CHANNELS 3 Yrotation Xrotation Zrotation
          End Site
          {
            OFFSET 0.037780746850000047 -0.9130806927000008 0.85230167
          }
        }
      }
    }
  }
  JOINT spine
  {
    OFFSET 0 0.13988381660000015 0
    CHANNELS 3 Yrotation Xrotation Zrotation
    JOINT chest
    {
      OFFSET 0 0.6191039003973773 0
      CHANNELS 3 Yrotation Xrotation Zrotation
      JOINT upperChest
      {
        OFFSET 0 0.9855186130586943 0
        CHANNELS 3 Yrotation Xrotation Zrotation
        JOINT leftShoulder
        {
          OFFSET 0.1807663869 1.5087829790000005 0
          CHANNELS 3 Yrotation Xrotation Zrotation
          JOINT leftUpperArm
          {
            OFFSET 0.5985063006419806 0 0
            CHANNELS 3 Yrotation Xrotation Zrotation
            JOINT leftLowerArm
            {
              OFFSET 2.2993332369501065 0 0
              CHANNELS 3 Yrotation Xrotation Zrotation
              JOINT leftHand
              {
                OFFSET 2.395047042602395 0 0
                CHANNELS 3 Yrotation Xrotation Zrotation
                JOINT leftIndexProximal
                {
                  OFFSET 0.5766295810000004 0.04556643899499946 0.17265095988184
                  CHANNELS 3 Yrotation Xrotation Zrotation
                  JOINT leftIndexIntermediate
                  {
                    OFFSET 0.2957229000000008 -0.019352197700001517 -0.007932640616999987
                    CHANNELS 3 Yrotation Xrotation Zrotation
                    JOINT leftIndexDistal
                    {
                      OFFSET 0.19008243099999922 -0.012484908149998475 -0.002786250786000012
                      CHANNELS 3 Yrotation Xrotation Zrotation
                      End Site
                      {
                        OFFSET 0.19008243099999922 -0.012484908149998475 -0.002786250786000012
                      }
                    }
                  }
                }
                JOINT leftMiddleProximal
                {
                  OFFSET 0.5834975091000001 0.0524350405149987 0.02204081888183999
                  CHANNELS 3 Yrotation Xrotation Zrotation
                  JOINT leftMiddleIntermediate
                  {
                    OFFSET 0.33880573540000003 -0.019871473270000717 -0.00000971183179999946
                    CHANNELS 3 Yrotation Xrotation Zrotation
                    JOINT leftMiddleDistal
                    {
                      OFFSET 0.20676022730000088 -0.012221336379999448 0.0001471936708000235
                      CHANNELS 3 Yrotation Xrotation Zrotation
                      End Site
                      {
                        OFFSET 0.20676022730000088 -0.012221336379999448 0.0001471936708000235
                      }
                    }
                  }
                }
                JOINT leftLittleProximal
                {
                  OFFSET 0.5344154683999995 -0.012880921405001189 -0.24414037221816004
                  CHANNELS 3 Yrotation Xrotation Zrotation
                  JOINT leftLittleIntermediate
                  {
                    OFFSET 0.21758961730000093 -0.011650919939999227 0.011893592810000034
                    CHANNELS 3 Yrotation Xrotation Zrotation
                    JOINT leftLittleDistal
                    {
                      OFFSET 0.1475273964999999 -0.008152365682999818 0.006001092492999946
                      CHANNELS 3 Yrotation Xrotation Zrotation
                      End Site
                      {
                        OFFSET 0.1475273964999999 -0.008152365682999818 0.006001092492999946
                      }
                    }
                  }
                }
                JOINT leftRingProximal
                {
                  OFFSET 0.5799399463000003 0.026911854694997794 -0.12150566991816003
                  CHANNELS 3 Yrotation Xrotation Zrotation
                  JOINT leftRingIntermediate
                  {
                    OFFSET 0.26167887460000006 -0.013480186499999602 0.010996293000000053
                    CHANNELS 3 Yrotation Xrotation Zrotation
                    JOINT leftRingDistal
                    {
                      OFFSET 0.17667108799999987 -0.008990287899999228 0.0055541023999999065
                      CHANNELS 3 Yrotation Xrotation Zrotation
                      End Site
                      {
                        OFFSET 0.17667108799999987 -0.008990287899999228 0.0055541023999999065
                      }
                    }
                  }
                }
                JOINT leftThumbProximal
                {
                  OFFSET 0.11018806699999972 -0.09448718900500053 0.17047963138184
                  CHANNELS 3 Yrotation Xrotation Zrotation
                  JOINT leftThumbIntermediate
                  {
                    OFFSET 0.31062601459999983 -0.08126270900000132 0.15443142000000007
                    CHANNELS 3 Yrotation Xrotation Zrotation
                    JOINT leftThumbDistal
                    {
                      OFFSET 0.21627175790000086 -0.08833193599999878 0.018771167799999988
                      CHANNELS 3 Yrotation Xrotation Zrotation
                      End Site
                      {
                        OFFSET 0.21627175790000086 -0.08833193599999878 0.018771167799999988
                      }
                    }
                  }
                }
              }
            }
          }
        }
        JOINT neck
        {
          OFFSET 0 1.5463305265074576 0
          CHANNELS 3 Yrotation Xrotation Zrotation
          JOINT head
          {
            OFFSET 0 0.8456443600000344 0
            CHANNELS 3 Yrotation Xrotation Zrotation
            JOINT leftEye
            {
              OFFSET 0.30408573140000006 0.5104519199999995 0.1276382305
              CHANNELS 3 Yrotation Xrotation Zrotation
              End Site
              {
                OFFSET 0.30408573140000006 0.5104519199999995 0.1276382305
              }
            }
            JOINT rightEye
            {
              OFFSET -0.30409491089999996 0.5104519199999995 0.1276379445
              CHANNELS 3 Yrotation Xrotation Zrotation
              End Site
              {
                OFFSET -0.30409491089999996 0.5104519199999995 0.1276379445
              }
            }
            JOINT jaw
            {
              OFFSET -3.155239131000001e-7 -0.11984121820000082 0.60178107
              CHANNELS 3 Yrotation Xrotation Zrotation
              End Site
              {
                OFFSET -3.155239131000001e-7 -0.11984121820000082 0.60178107
              }
            }
          }
        }
        JOINT rightShoulder
        {
          OFFSET -0.1807303465 1.5087829790000005 0
          CHANNELS 3 Yrotation Xrotation Zrotation
          JOINT rightUpperArm
          {
            OFFSET -0.5985063796536958 0 0
            CHANNELS 3 Yrotation Xrotation Zrotation
            JOINT rightLowerArm
            {
              OFFSET -2.2993322059002854 0 0
              CHANNELS 3 Yrotation Xrotation Zrotation
              JOINT rightHand
              {
                OFFSET -2.395045314457259 0 0
                CHANNELS 3 Yrotation Xrotation Zrotation
                JOINT rightIndexProximal
                {
                  OFFSET -0.5764487688300002 0.0441371204405987 0.17361932004999997
                  CHANNELS 3 Yrotation Xrotation Zrotation
                  JOINT rightIndexIntermediate
                  {
                    OFFSET -0.29573011380000047 -0.01934826376999843 -0.007698921482999974
                    CHANNELS 3 Yrotation Xrotation Zrotation
                    JOINT rightIndexDistal
                    {
                      OFFSET -0.19008373999999884 -0.012503266380000655 -0.0026365778999999897
                      CHANNELS 3 Yrotation Xrotation Zrotation
                      End Site
                      {
                        OFFSET -0.19008373999999884 -0.012503266380000655 -0.0026365778999999897
                      }
                    }
                  }
                }
                JOINT rightMiddleProximal
                {
                  OFFSET -0.5834852037300005 0.05211639405060153 0.02307162440000001
                  CHANNELS 3 Yrotation Xrotation Zrotation
                  JOINT rightMiddleIntermediate
                  {
                    OFFSET -0.33880114510000003 -0.019952774050000954 0.0002455003561999819
                    CHANNELS 3 Yrotation Xrotation Zrotation
                    JOINT rightMiddleDistal
                    {
                      OFFSET -0.20675694929999955 -0.012273788999999091 0.00030209124000002766
                      CHANNELS 3 Yrotation Xrotation Zrotation
                      End Site
                      {
                        OFFSET -0.20675694929999955 -0.012273788999999091 0.00030209124000002766
                      }
                    }
                  }
                }
                JOINT rightLittleProximal
                {
                  OFFSET -0.5346811737299992 -0.011214256288399227 -0.24363941305000003
                  CHANNELS 3 Yrotation Xrotation Zrotation
                  JOINT rightLittleIntermediate
                  {
                    OFFSET -0.21757715980000092 -0.011771559690000988 0.01201554387
                    CHANNELS 3 Yrotation Xrotation Zrotation
                    JOINT rightLittleDistal
                    {
                      OFFSET -0.1475201849000004 -0.00822055339600003 0.006082065407000015
                      CHANNELS 3 Yrotation Xrotation Zrotation
                      End Site
                      {
                        OFFSET -0.1475201849000004 -0.00822055339600003 0.006082065407000015
                      }
                    }
                  }
                }
                JOINT rightRingProximal
                {
                  OFFSET -0.5800810755299999 0.027657985680600072 -0.12066365025000003
                  CHANNELS 3 Yrotation Xrotation Zrotation
                  JOINT rightRingIntermediate
                  {
                    OFFSET -0.26166445029999974 -0.013623118409999302 0.011164098990000045
                    CHANNELS 3 Yrotation Xrotation Zrotation
                    JOINT rightRingDistal
                    {
                      OFFSET -0.17666387530000027 -0.009072900100000503 0.005668185599999959
                      CHANNELS 3 Yrotation Xrotation Zrotation
                      End Site
                      {
                        OFFSET -0.17666387530000027 -0.009072900100000503 0.005668185599999959
                      }
                    }
                  }
                }
                JOINT rightThumbProximal
                {
                  OFFSET -0.10997596379000074 -0.09577489355940072 0.16989765924999997
                  CHANNELS 3 Yrotation Xrotation Zrotation
                  JOINT rightThumbIntermediate
                  {
                    OFFSET -0.31036620999999986 -0.08229339117999834 0.15440884469999996
                    CHANNELS 3 Yrotation Xrotation Zrotation
                    JOINT rightThumbDistal
                    {
                      OFFSET -0.21631306399999906 -0.08825326400000111 0.018656797720000014
                      CHANNELS 3 Yrotation Xrotation Zrotation
                      End Site
                      {
                        OFFSET -0.21631306399999906 -0.08825326400000111 0.018656797720000014
                      }
                    }
                  }
                }
              }
            }
          }
        }
      }
    }
  }
}
MOTION
Frames: 8
Frame Time: 0.03333333333333333
-8.0529326932475 -6.851727247873145 3.2206911521366424 89.99798717602386 7.002476744799782 -0.0025967171358659397 -13.698422317955396 -29.592624536980793 9.211186928139456 163.8705638495629 69.83137396788439 162.87683257492182 0.000002559263633402947 66.9996088288033 0.000001355807921723583 0 0 0 5.744595723437273 -31.003071715985808 -7.17935458429394 -160.9099337586091 72.67209053982153 -160.072368620743 0.000002559263633402947 66.9996088288033 0.000001355807921723583 0 0 0 41.110950937776835 63.69255924376117 39.44345329511519 -20.97582069658246 -4.437136982920431 0.8680488566945593 0 0 0 -5.6580603888502194 -7.201777122399308 -4.346643213072182 -85.96187358631518 27.94847607558629 6.743330243615816 -15.515900645000531 -20.00143074166487 -0.0019315001851334087 -14.528235199858635 -15.363454531993929 47.15239167811105 0 0 0 0 0 0 0 0 0 0 0 0 0 0 0 0 0 0 0 0 0 0 0 0 0 0 0 0 0 0 0 0 0 0 0 0 0 0 0 0 0 0 0 0 0 43.91439592375853 -18.941599903826273 -17.358356147112424 -42.3645080185594 -10.035170428356508 9.457079862829561 0 0 0 0 0 0 0 0 0 0 -8.474666291380448 0 6.125378770508471 -60.77803234871154 36.86910157391327 79.23925086966274 -19.87183393522848 0.7507845254706967 13.68970811281008 17.73356277654568 11.377917526817612 0 0 0 0 0 0 0 0 0 0 0 0 0 0 0 0 0 0 0 0 0 0 0 0 0 0 0 0 0 0 0 0 0 0 0 0 0 0 0 0 0 0 0 0 0
-8.0529326932475 -6.851727247873145 3.2206911521366424 89.99798717602386 7.002476744799782 -0.0025967171358659397 -13.698422317955396 -29.592624536980793 9.211186928139456 163.8705638495629 69.83137396788439 162.87683257492182 0.000002559263633402947 66.9996088288033 0.000001355807921723583 0 0 0 5.744595723437273 -31.003071715985808 -7.17935458429394 -160.9099337586091 72.67209053982153 -160.072368620743 0.000002559263633402947 66.9996088288033 0.000001355807921723583 0 0 0 41.061254221477725 63.66437020998537 39.38801039321581 -20.901040573983483 -5.030301269070347 1.109367408180089 0 0 0 -5.677136870951723 -7.19823247813385 -4.361379711544605 -86.64679618886233 25.4572608544458 6.042148045811194 -17.136240960539794 -20.001479804733055 -0.0018942543053242496 -14.528235199858635 -15.363454531993929 47.15239167811105 0 0 0 0 0 0 0 0 0 0 0 0 0 0 0 0 0 0 0 0 0 0 0 0 0 0 0 0 0 0 0 0 0 0 0 0 0 0 0 0 0 0 0 0 0 43.91439592375853 -18.941599903826273 -17.358356147112424 -42.22167069387949 -9.653137387305302 9.06636759753647 0 0 0 0 0 0 0 0 0 0 -8.474666291380448 0 6.9536025646137505 -60.34748075455288 38.17613225865696 80.34627206785851 -19.875970063031552 0.768754574724933 13.689707241908298 17.73356277654568 11.377915769317514 0 0 0 0 0 0 0 0 0 0 0 0 0 0 0 0 0 0 0 0 0 0 0 0 0 0 0 0 0 0 0 0 0 0 0 0 0 0 0 0 0 0 0 0 0
-8.0529326932475 -6.851727247873145 3.2206911521366424 89.99798717602386 7.002476744799782 -0.0025967171358659397 -13.698422317955396 -29.592624536980793 9.211186928139456 163.8705638495629 69.83137396788439 162.87683257492182 0.000002559263633402947 66.9996088288033 0.000001355807921723583 0 0 0 5.744595723437273 -31.003071715985808 -7.17935458429394 -160.9099337586091 72.67209053982153 -160.072368620743 0.000002559263633402947 66.9996088288033 0.000001355807921723583 0 0 0 41.03645337756053 63.6502708063024 39.36033487442791 -20.864612893380347 -5.326667637901824 1.2296854839075093 0 0 0 -5.686674698631949 -7.196462317769734 -4.368748481786961 -86.97344949035923 24.20175495182122 5.707088746943928 -17.950627990036875 -20.001503427697262 -0.0018747486824594545 -14.528235199858635 -15.363454531993929 47.15239167811105 0 0 0 0 0 0 0 0 0 0 0 0 0 0 0 0 0 0 0 0 0 0 0 0 0 0 0 0 0 0 0 0 0 0 0 0 0 0 0 0 0 0 0 0 0 43.91439592375853 -18.941599903826273 -17.358356147112424 -42.15134741873161 -9.461872744608856 8.871650864341435 0 0 0 0 0 0 0 0 0 0 -8.474666291380448 0 7.370581238326279 -60.13593202085429 38.82727080191394 80.89842834924607 -19.878156189985347 0.7776847095063815 13.689707241908298 17.73356277654568 11.377915769317514 0 0 0 0 0 0 0 0 0 0 0 0 0 0 0 0 0 0 0 0 0 0 0 0 0 0 0 0 0 0 0 0 0 0 0 0 0 0 0 0 0 0 0 0 0
-8.0529326932475 -6.851727247873145 3.2206911521366424 89.99798717602386 7.002476744799782 -0.0025967171358659397 -13.698422317955396 -29.592624536980793 9.211186928139456 163.8705638495629 69.83137396788439 162.87683257492182 0.000002559263633402947 66.9996088288033 0.000001355807921723583 0 0 0 5.744595723437273 -31.003071715985808 -7.17935458429394 -160.9099337586091 72.67209053982153 -160.072368620743 0.000002559263633402947 66.9996088288033 0.000001355807921723583 0 0 0 41.01167717123079 63.636163023125434 39.33268090334933 -20.828793064170778 -5.623109661517859 1.3498739339113581 0 0 0 -5.696212880112416 -7.194693024860379 -4.376117361507024 -87.28901478382767 22.944564923733385 5.382998149641187 -18.765015695160223 -20.001528867816532 -0.0018548798147368407 -14.528235199858635 -15.363454531993929 47.15239167811105 0 0 0 0 0 0 0 0 0 0 0 0 0 0 0 0 0 0 0 0 0 0 0 0 0 0 0 0 0 0 0 0 0 0 0 0 0 0 0 0 0 0 0 0 0 43.91439592375853 -18.941599903826273 -17.358356147112424 -42.08171985018035 -9.270373612685157 8.677279447094552 0 0 0 0 0 0 0 0 0 0 -8.474666291380448 0 7.789684591581877 -59.926750387528664 39.477333964941764 81.45059174773763 -19.880424056212988 0.7865921636749191 13.689707241908298 17.73356277654568 11.377915769317514 0 0 0 0 0 0 0 0 0 0 0 0 0 0 0 0 0 0 0 0 0 0 0 0 0 0 0 0 0 0 0 0 0 0 0 0 0 0 0 0 0 0 0 0 0
-8.0529326932475 -6.851727247873145 3.2206911521366424 89.99798717602386 7.002476744799782 -0.0025967171358659397 -13.698422317955396 -29.592624536980793 9.211186928139456 163.8705638495629 69.83137396788439 162.87683257492182 0.000002559263633402947 66.9996088288033 0.000001355807921723583 0 0 0 5.744595723437273 -31.003071715985808 -7.17935458429394 -160.9099337586091 72.67209053982153 -160.072368620743 0.000002559263633402947 66.9996088288033 0.000001355807921723583 0 0 0 40.962218707786846 63.60794541321543 39.27747128071874 -20.759044392663657 -6.215507028516049 1.5895993873099956 0 0 0 -5.715290559704124 -7.191160483529221 -4.390855902696528 -87.89195403596106 20.413505543150986 4.762588448660877 -20.40162886295198 -20.001574296611164 -0.0018155055209925382 -14.528235199858635 -15.363454531993929 47.15239167811105 0 0 0 0 0 0 0 0 0 0 0 0 0 0 0 0 0 0 0 0 0 0 0 0 0 0 0 0 0 0 0 0 0 0 0 0 0 0 0 0 0 0 0 0 0 43.91439592375853 -18.941599903826273 -17.358356147112424 -41.94463414437286 -8.8869223843948 8.289793083254166 0 0 0 0 0 0 0 0 0 0 -8.474666291380448 0 8.632623264521104 -59.51623674898387 40.77220585087228 82.55198520001528 -19.885185046724505 0.8042886799981775 13.68970811281008 17.73356277654568 11.377917526817612 0 0 0 0 0 0 0 0 0 0 0 0 0 0 0 0 0 0 0 0 0 0 0 0 0 0 0 0 0 0 0 0 0 0 0 0 0 0 0 0 0 0 0 0 0
-8.0529326932475 -6.851727247873145 3.2206911521366424 89.99798717602386 7.002476744799782 -0.0025967171358659397 -13.698422317955396 -29.592624536980793 9.211186928139456 163.8705638495629 69.83137396788439 162.87683257492182 0.000002559263633402947 66.9996088288033 0.000001355807921723583 0 0 0 5.744595723437273 -31.003071715985808 -7.17935458429394 -160.9099337586091 72.67209053982153 -160.072368620743 0.000002559263633402947 66.9996088288033 0.000001355807921723583 0 0 0 40.93753384006464 63.593820228799885 39.24990769494437 -20.725119215935365 -6.5114450452373 1.7091438205803888 0 0 0 -5.724829630876328 -7.189394653439102 -4.39822642343465 -88.1799396080351 19.141063006568537 4.4656593037357935 -21.223547435158334 -20.001596102437247 -0.0017943936665891307 -14.528235199858635 -15.363454531993929 47.15239167811105 0 0 0 0 0 0 0 0 0 0 0 0 0 0 0 0 0 0 0 0 0 0 0 0 0 0 0 0 0 0 0 0 0 0 0 0 0 0 0 0 0 0 0 0 0 43.91439592375853 -18.941599903826273 -17.358354424025983 -41.87716906346706 -8.694982029384471 8.096676590622298 0 0 0 0 0 0 0 0 0 0 -8.474666291380448 0 9.056070628421265 -59.31507204713258 41.416675408378154 83.10112791255564 -19.887678177786228 0.8130751414068412 13.68970811281008 17.73356277654568 11.377917526817612 0 0 0 0 0 0 0 0 0 0 0 0 0 0 0 0 0 0 0 0 0 0 0 0 0 0 0 0 0 0 0 0 0 0 0 0 0 0 0 0 0 0 0 0 0
-8.0529326932475 -6.851727247873145 3.2206911521366424 89.99798717602386 7.002476744799782 -0.0025967171358659397 -13.698422317955396 -29.592624536980793 9.211186928139456 163.8705638495629 69.83137396788439 162.87683257492182 0.000002559263633402947 66.9996088288033 0.000001355807921723583 0 0 0 5.744595723437273 -31.003071715985808 -7.17935458429394 -160.9099337586091 72.67209053982153 -160.072368620743 0.000002559263633402947 66.9996088288033 0.000001355807921723583 0 0 0 40.912873465326996 63.57970205404449 39.222373885793736 -20.69179582987537 -6.8074527321864835 1.8285837880058144 0 0 0 -5.734368627827654 -7.187630551285758 -4.405597316139339 -88.4588598538801 17.86725199289543 4.177653693583731 -22.045465413786875 -20.00161972541891 -0.001772938428880406 -14.528235199858635 -15.363454531993929 47.15239167811105 0 0 0 0 0 0 0 0 0 0 0 0 0 0 0 0 0 0 0 0 0 0 0 0 0 0 0 0 0 0 0 0 0 0 0 0 0 0 0 0 0 0 0 0 0 43.91439592375853 -18.941599903826273 -17.358354424025983 -41.81039086241472 -8.502819689078224 7.903886039215563 0 0 0 0 0 0 0 0 0 0 -8.474666291380448 0 9.481427151530566 -59.116348049221244 42.060262445159225 83.65027934624693 -19.890253062277907 0.821835855663649 13.689707241908298 17.73356277654568 11.377915769317514 0 0 0 0 0 0 0 0 0 0 0 0 0 0 0 0 0 0 0 0 0 0 0 0 0 0 0 0 0 0 0 0 0 0 0 0 0 0 0 0 0 0 0 0 0
-8.0529326932475 -6.851727247873145 3.2206911521366424 89.99798717602386 7.002476744799782 -0.0025967171358659397 -13.698422317955396 -29.592624536980793 9.211186928139456 163.8705638495629 69.83137396788439 162.87683257492182 0.000002559263633402947 66.9996088288033 0.000001355807921723583 0 0 0 5.744595723437273 -31.003071715985808 -7.17935458429394 -160.9099337586091 72.67209053982153 -160.072368620743 0.000002559263633402947 66.9996088288033 0.000001355807921723583 0 0 0 40.86362028682233 63.55143301533377 39.1673655128913 -20.627035853107625 -7.398890093924294 2.066862219578455 0 0 0 -5.753447860248347 -7.184109251760803 -4.42033919474395 -88.99280074373016 15.309058223047945 3.624868579494856 -23.69589808408252 -20.001666971392872 -0.001728243057702902 -14.528235199858635 -15.363454531993929 47.15239167811105 0 0 0 0 0 0 0 0 0 0 0 0 0 0 0 0 0 0 0 0 0 0 0 0 0 0 0 0 0 0 0 0 0 0 0 0 0 0 0 0 0 0 0 0 0 43.91439592375853 -18.941599903826273 -17.358356147112424 -41.67899982566948 -8.118106347899856 7.5195423222530655 0 0 0 0 0 0 0 0 0 0 -8.474666291380448 0 10.335037589579732 -58.72747286227644 43.341085485745865 84.74524869467481 -19.89561360492494 0.8392240397061062 13.689707241908298 17.73356277654568 11.377915769317514 0 0 0 0 0 0 0 0 0 0 0 0 0 0 0 0 0 0 0 0 0 0 0 0 0 0 0 0 0 0 0 0 0 0 0 0 0 0 0 0 0 0 0 0 0
